# Blender 4.1.1
# www.blender.org
mtllib MOTL_Player_Body.mtl
o Cone
v 0.000000 -1.000000 -1.000000
v 0.382683 -1.000000 -0.923880
v 0.707107 -1.000000 -0.707107
v 0.923880 -1.000000 -0.382683
v 1.000000 -1.000000 0.000000
v 0.923880 -1.000000 0.382683
v 0.707107 -1.000000 0.707107
v 0.382683 -1.000000 0.923880
v 0.000000 -1.000000 1.000000
v -0.382683 -1.000000 0.923880
v -0.707107 -1.000000 0.707107
v -0.923880 -1.000000 0.382683
v -1.000000 -1.000000 0.000000
v -0.923880 -1.000000 -0.382683
v -0.707107 -1.000000 -0.707107
v -0.382683 -1.000000 -0.923880
v 0.106118 0.445403 -0.256190
v 0.000000 0.445403 -0.277298
v 0.196080 0.445403 -0.196080
v 0.256190 0.445403 -0.106118
v 0.277298 0.445403 0.000000
v 0.256190 0.445403 0.106118
v 0.196080 0.445403 0.196080
v 0.106118 0.445403 0.256190
v 0.000000 0.445403 0.277298
v -0.106118 0.445403 0.256190
v -0.196080 0.445403 0.196080
v -0.256190 0.445403 0.106118
v -0.277298 0.445403 0.000000
v -0.256190 0.445403 -0.106118
v -0.196080 0.445403 -0.196080
v -0.106118 0.445403 -0.256190
vn 0.1752 0.4403 -0.8806
vn 0.4988 0.4403 -0.7465
vn 0.7465 0.4403 -0.4988
vn 0.8806 0.4403 -0.1752
vn 0.8806 0.4403 0.1752
vn 0.7465 0.4403 0.4988
vn 0.4988 0.4403 0.7465
vn 0.1752 0.4403 0.8806
vn -0.1752 0.4403 0.8806
vn -0.4988 0.4403 0.7465
vn -0.7465 0.4403 0.4988
vn -0.8806 0.4403 0.1752
vn -0.8806 0.4403 -0.1752
vn -0.7465 0.4403 -0.4988
vn -0.0000 -1.0000 -0.0000
vn -0.4988 0.4403 -0.7465
vn -0.1752 0.4403 -0.8806
vn -0.0000 1.0000 -0.0000
vt 0.341844 0.471731
vt 0.250000 0.490000
vt 0.250000 0.316552
vt 0.275468 0.311486
vt 0.297059 0.297059
vt 0.419706 0.419706
vt 0.471731 0.341844
vt 0.311486 0.275468
vt 0.316552 0.250000
vt 0.490000 0.250000
vt 0.311486 0.224532
vt 0.471731 0.158156
vt 0.419706 0.080294
vt 0.297059 0.202941
vt 0.341844 0.028269
vt 0.275468 0.188514
vt 0.250000 0.183448
vt 0.250000 0.010000
vt 0.224532 0.188514
vt 0.158156 0.028269
vt 0.080294 0.080294
vt 0.202941 0.202941
vt 0.188514 0.224532
vt 0.028269 0.158156
vt 0.010000 0.250000
vt 0.183448 0.250000
vt 0.028269 0.341844
vt 0.188514 0.275468
vt 0.202941 0.297059
vt 0.080294 0.419706
vt 0.658156 0.471731
vt 0.750000 0.490000
vt 0.841844 0.471731
vt 0.919706 0.419706
vt 0.971731 0.341844
vt 0.990000 0.250000
vt 0.971731 0.158156
vt 0.919706 0.080294
vt 0.841844 0.028269
vt 0.750000 0.010000
vt 0.658156 0.028269
vt 0.580294 0.080294
vt 0.528269 0.158156
vt 0.510000 0.250000
vt 0.528269 0.341844
vt 0.580294 0.419706
vt 0.224532 0.311486
vt 0.158156 0.471731
vt 0.185952 0.651529
vt 0.200980 0.674020
vt 0.223471 0.689048
vt 0.250000 0.694325
vt 0.276529 0.689048
vt 0.299020 0.674020
vt 0.314048 0.651529
vt 0.319325 0.625000
vt 0.314048 0.598471
vt 0.299020 0.575980
vt 0.276529 0.560952
vt 0.250000 0.555675
vt 0.223471 0.560952
vt 0.200980 0.575980
vt 0.185952 0.598471
vt 0.180675 0.625000
s 0
f 2/1/1 1/2/1 18/3/1 17/4/1
f 19/5/2 3/6/2 2/1/2 17/4/2
f 4/7/3 3/6/3 19/5/3 20/8/3
f 21/9/4 5/10/4 4/7/4 20/8/4
f 22/11/5 6/12/5 5/10/5 21/9/5
f 7/13/6 6/12/6 22/11/6 23/14/6
f 8/15/7 7/13/7 23/14/7 24/16/7
f 25/17/8 9/18/8 8/15/8 24/16/8
f 26/19/9 10/20/9 9/18/9 25/17/9
f 11/21/10 10/20/10 26/19/10 27/22/10
f 28/23/11 12/24/11 11/21/11 27/22/11
f 13/25/12 12/24/12 28/23/12 29/26/12
f 14/27/13 13/25/13 29/26/13 30/28/13
f 31/29/14 15/30/14 14/27/14 30/28/14
f 16/31/15 1/32/15 2/33/15 3/34/15 4/35/15 5/36/15 6/37/15 7/38/15 8/39/15 9/40/15 10/41/15 11/42/15 12/43/15 13/44/15 14/45/15 15/46/15
f 32/47/16 16/48/16 15/30/16 31/29/16
f 1/2/17 16/48/17 32/47/17 18/3/17
f 28/49/18 27/50/18 26/51/18 25/52/18 24/53/18 23/54/18 22/55/18 21/56/18 20/57/18 19/58/18 17/59/18 18/60/18 32/61/18 31/62/18 30/63/18 29/64/18
