# Blender 4.1.1
# www.blender.org
mtllib MOTL_Weapon_Crust.mtl
o Circle
v 0.500000 -0.350735 0.617538
v 0.500000 -0.359134 0.610866
v 0.500000 -0.367779 0.599776
v 0.500000 -0.375355 0.584853
v 0.500000 -0.381573 0.566668
v 0.500000 -0.386194 0.545922
v 0.500000 -0.389039 0.523411
v 0.500000 -0.390000 0.500000
v 0.500000 -0.389039 0.476589
v 0.500000 -0.386194 0.454078
v 0.500000 -0.381573 0.433332
v 0.500000 -0.375355 0.415147
v 0.500000 -0.367779 0.400224
v 0.500000 -0.359134 0.389134
v 0.500000 -0.350891 0.382986
v -0.500000 -0.350588 0.617201
v -0.500000 -0.359134 0.610866
v -0.500000 -0.367779 0.599776
v -0.500000 -0.375355 0.584853
v -0.500000 -0.381573 0.566668
v -0.500000 -0.386194 0.545922
v -0.500000 -0.389039 0.523411
v -0.500000 -0.390000 0.500000
v -0.500000 -0.389039 0.476589
v -0.500000 -0.386194 0.454078
v -0.500000 -0.381573 0.433332
v -0.500000 -0.375355 0.415147
v -0.500000 -0.367779 0.400224
v -0.500000 -0.359134 0.389134
v -0.500000 -0.350600 0.383255
v -0.500000 -0.342035 0.392616
v -0.500000 -0.332331 0.403480
v -0.500000 -0.320667 0.416068
v -0.500000 -0.311225 0.430940
v -0.500000 -0.303714 0.451844
v -0.500000 -0.297689 0.474819
v -0.500000 -0.293383 0.498985
v -0.500000 -0.349262 0.399041
v -0.500000 -0.339141 0.413086
v -0.500000 -0.329161 0.430729
v -0.500000 -0.319705 0.451292
v -0.500000 -0.311137 0.473986
v -0.500000 -0.303786 0.497938
v -0.500000 -0.297934 0.522228
v -0.500000 -0.358823 0.414399
v -0.500000 -0.349211 0.432028
v -0.500000 -0.339314 0.452432
v -0.500000 -0.329512 0.474828
v -0.500000 -0.320180 0.498354
v -0.500000 -0.311678 0.522107
v -0.500000 -0.304333 0.545174
v -0.500000 -0.367779 0.433332
v -0.500000 -0.359134 0.454078
v -0.500000 -0.349755 0.476589
v -0.500000 -0.340000 0.500000
v -0.500000 -0.330245 0.523411
v -0.500000 -0.320866 0.545922
v -0.500000 -0.312221 0.566668
v -0.500000 -0.375667 0.454826
v -0.500000 -0.368322 0.477893
v -0.500000 -0.359820 0.501646
v -0.500000 -0.350488 0.525172
v -0.500000 -0.340686 0.547568
v -0.500000 -0.330789 0.567972
v -0.500000 -0.321346 0.584454
v -0.500000 -0.382066 0.477772
v -0.500000 -0.376214 0.502062
v -0.500000 -0.368863 0.526014
v -0.500000 -0.360295 0.548708
v -0.500000 -0.350839 0.569271
v -0.500000 -0.340859 0.586914
v -0.500000 -0.333482 0.597859
v -0.500000 -0.386617 0.501015
v -0.500000 -0.382311 0.525181
v -0.500000 -0.376286 0.548156
v -0.500000 -0.368775 0.569060
v -0.500000 -0.360065 0.587087
v -0.500000 -0.350492 0.601546
v -0.500000 -0.343466 0.609137
v 0.500000 -0.342905 0.391710
v 0.500000 -0.332470 0.403200
v 0.500000 -0.320920 0.415859
v 0.500000 -0.311225 0.430940
v 0.500000 -0.303714 0.451844
v 0.500000 -0.297689 0.474819
v 0.500000 -0.293383 0.498985
v 0.500000 -0.349262 0.399041
v 0.500000 -0.339141 0.413086
v 0.500000 -0.329161 0.430729
v 0.500000 -0.319705 0.451292
v 0.500000 -0.311137 0.473986
v 0.500000 -0.303786 0.497938
v 0.500000 -0.297934 0.522228
v 0.500000 -0.358823 0.414399
v 0.500000 -0.349211 0.432028
v 0.500000 -0.339314 0.452432
v 0.500000 -0.329512 0.474828
v 0.500000 -0.320180 0.498354
v 0.500000 -0.311678 0.522107
v 0.500000 -0.304333 0.545174
v 0.500000 -0.367779 0.433332
v 0.500000 -0.359134 0.454078
v 0.500000 -0.349755 0.476589
v 0.500000 -0.340000 0.500000
v 0.500000 -0.330245 0.523411
v 0.500000 -0.320866 0.545922
v 0.500000 -0.312221 0.566668
v 0.500000 -0.375667 0.454826
v 0.500000 -0.368322 0.477893
v 0.500000 -0.359820 0.501646
v 0.500000 -0.350488 0.525172
v 0.500000 -0.340686 0.547568
v 0.500000 -0.330789 0.567972
v 0.500000 -0.321177 0.584565
v 0.500000 -0.382066 0.477772
v 0.500000 -0.376214 0.502062
v 0.500000 -0.368863 0.526014
v 0.500000 -0.360295 0.548708
v 0.500000 -0.350839 0.569271
v 0.500000 -0.340859 0.586914
v 0.500000 -0.336226 0.600959
v 0.500000 -0.386617 0.501015
v 0.500000 -0.382311 0.525181
v 0.500000 -0.376286 0.548156
v 0.500000 -0.368775 0.569060
v 0.500000 -0.360065 0.587087
v 0.500000 -0.350492 0.601546
v 0.500000 -0.345978 0.611881
vn -0.0000 -0.9462 0.3236
vn -0.0000 -0.9761 0.2174
vn -0.0000 -0.9921 0.1254
vn -0.0000 -0.9992 0.0410
vn -0.0000 -0.9992 -0.0410
vn -0.0000 -0.9921 -0.1254
vn -0.0000 -0.9761 -0.2174
vn -0.0000 -0.9462 -0.3236
vn -0.0000 -0.8917 -0.4527
vn -0.0000 -0.7887 -0.6148
vn -0.0002 -0.5827 -0.8127
vn -0.0002 -0.6089 0.7932
vn -0.0000 -0.7887 0.6148
vn -0.0000 -0.8917 0.4527
vn -1.0000 -0.0000 -0.0000
vn 1.0000 -0.0000 -0.0000
vn -0.0001 0.8920 0.4520
vn -0.0000 0.9388 0.3445
vn -0.0000 0.9632 0.2686
vn -0.0000 0.9814 0.1921
vn -0.0000 0.9845 -0.1754
vn -0.0000 0.9673 -0.2536
vn -0.0000 0.9411 -0.3382
vn 0.0001 0.8427 -0.5384
vt 0.000000 0.000000
s 0
f 5/1/1 4/1/1 19/1/1 20/1/1
f 6/1/2 5/1/2 20/1/2 21/1/2
f 7/1/3 6/1/3 21/1/3 22/1/3
f 8/1/4 7/1/4 22/1/4 23/1/4
f 9/1/5 8/1/5 23/1/5 24/1/5
f 10/1/6 9/1/6 24/1/6 25/1/6
f 11/1/7 10/1/7 25/1/7 26/1/7
f 12/1/8 11/1/8 26/1/8 27/1/8
f 13/1/9 12/1/9 27/1/9 28/1/9
f 14/1/10 13/1/10 28/1/10 29/1/10
f 15/1/11 14/1/11 29/1/11 30/1/11
f 2/1/12 1/1/12 16/1/12 17/1/12
f 3/1/13 2/1/13 17/1/13 18/1/13
f 4/1/14 3/1/14 18/1/14 19/1/14
f 30/1/15 29/1/15 38/1/15 31/1/15
f 29/1/15 28/1/15 45/1/15 38/1/15
f 28/1/15 27/1/15 52/1/15 45/1/15
f 27/1/15 26/1/15 59/1/15 52/1/15
f 26/1/15 25/1/15 66/1/15 59/1/15
f 25/1/15 24/1/15 73/1/15 66/1/15
f 24/1/15 23/1/15 22/1/15 73/1/15
f 31/1/15 38/1/15 39/1/15 32/1/15
f 38/1/15 45/1/15 46/1/15 39/1/15
f 45/1/15 52/1/15 53/1/15 46/1/15
f 52/1/15 59/1/15 60/1/15 53/1/15
f 59/1/15 66/1/15 67/1/15 60/1/15
f 66/1/15 73/1/15 74/1/15 67/1/15
f 73/1/15 22/1/15 21/1/15 74/1/15
f 32/1/15 39/1/15 40/1/15 33/1/15
f 39/1/15 46/1/15 47/1/15 40/1/15
f 46/1/15 53/1/15 54/1/15 47/1/15
f 53/1/15 60/1/15 61/1/15 54/1/15
f 60/1/15 67/1/15 68/1/15 61/1/15
f 67/1/15 74/1/15 75/1/15 68/1/15
f 74/1/15 21/1/15 20/1/15 75/1/15
f 33/1/15 40/1/15 41/1/15 34/1/15
f 40/1/15 47/1/15 48/1/15 41/1/15
f 47/1/15 54/1/15 55/1/15 48/1/15
f 54/1/15 61/1/15 62/1/15 55/1/15
f 61/1/15 68/1/15 69/1/15 62/1/15
f 68/1/15 75/1/15 76/1/15 69/1/15
f 75/1/15 20/1/15 19/1/15 76/1/15
f 34/1/15 41/1/15 42/1/15 35/1/15
f 41/1/15 48/1/15 49/1/15 42/1/15
f 48/1/15 55/1/15 56/1/15 49/1/15
f 55/1/15 62/1/15 63/1/15 56/1/15
f 62/1/15 69/1/15 70/1/15 63/1/15
f 69/1/15 76/1/15 77/1/15 70/1/15
f 76/1/15 19/1/15 18/1/15 77/1/15
f 35/1/15 42/1/15 43/1/15 36/1/15
f 42/1/15 49/1/15 50/1/15 43/1/15
f 49/1/15 56/1/15 57/1/15 50/1/15
f 56/1/15 63/1/15 64/1/15 57/1/15
f 63/1/15 70/1/15 71/1/15 64/1/15
f 70/1/15 77/1/15 78/1/15 71/1/15
f 77/1/15 18/1/15 17/1/15 78/1/15
f 36/1/15 43/1/15 44/1/15 37/1/15
f 43/1/15 50/1/15 51/1/15 44/1/15
f 50/1/15 57/1/15 58/1/15 51/1/15
f 57/1/15 64/1/15 65/1/15 58/1/15
f 64/1/15 71/1/15 72/1/15 65/1/15
f 71/1/15 78/1/15 79/1/15 72/1/15
f 78/1/15 17/1/15 16/1/15 79/1/15
f 80/1/16 87/1/16 14/1/16 15/1/16
f 87/1/16 94/1/16 13/1/16 14/1/16
f 94/1/16 101/1/16 12/1/16 13/1/16
f 101/1/16 108/1/16 11/1/16 12/1/16
f 108/1/16 115/1/16 10/1/16 11/1/16
f 115/1/16 122/1/16 9/1/16 10/1/16
f 122/1/16 7/1/16 8/1/16 9/1/16
f 81/1/16 88/1/16 87/1/16 80/1/16
f 88/1/16 95/1/16 94/1/16 87/1/16
f 95/1/16 102/1/16 101/1/16 94/1/16
f 102/1/16 109/1/16 108/1/16 101/1/16
f 109/1/16 116/1/16 115/1/16 108/1/16
f 116/1/16 123/1/16 122/1/16 115/1/16
f 123/1/16 6/1/16 7/1/16 122/1/16
f 82/1/16 89/1/16 88/1/16 81/1/16
f 89/1/16 96/1/16 95/1/16 88/1/16
f 96/1/16 103/1/16 102/1/16 95/1/16
f 103/1/16 110/1/16 109/1/16 102/1/16
f 110/1/16 117/1/16 116/1/16 109/1/16
f 117/1/16 124/1/16 123/1/16 116/1/16
f 124/1/16 5/1/16 6/1/16 123/1/16
f 83/1/16 90/1/16 89/1/16 82/1/16
f 90/1/16 97/1/16 96/1/16 89/1/16
f 97/1/16 104/1/16 103/1/16 96/1/16
f 104/1/16 111/1/16 110/1/16 103/1/16
f 111/1/16 118/1/16 117/1/16 110/1/16
f 118/1/16 125/1/16 124/1/16 117/1/16
f 125/1/16 4/1/16 5/1/16 124/1/16
f 84/1/16 91/1/16 90/1/16 83/1/16
f 91/1/16 98/1/16 97/1/16 90/1/16
f 98/1/16 105/1/16 104/1/16 97/1/16
f 105/1/16 112/1/16 111/1/16 104/1/16
f 112/1/16 119/1/16 118/1/16 111/1/16
f 119/1/16 126/1/16 125/1/16 118/1/16
f 126/1/16 3/1/16 4/1/16 125/1/16
f 85/1/16 92/1/16 91/1/16 84/1/16
f 92/1/16 99/1/16 98/1/16 91/1/16
f 99/1/16 106/1/16 105/1/16 98/1/16
f 106/1/16 113/1/16 112/1/16 105/1/16
f 113/1/16 120/1/16 119/1/16 112/1/16
f 120/1/16 127/1/16 126/1/16 119/1/16
f 127/1/16 2/1/16 3/1/16 126/1/16
f 86/1/16 93/1/16 92/1/16 85/1/16
f 93/1/16 100/1/16 99/1/16 92/1/16
f 100/1/16 107/1/16 106/1/16 99/1/16
f 107/1/16 114/1/16 113/1/16 106/1/16
f 114/1/16 121/1/16 120/1/16 113/1/16
f 121/1/16 128/1/16 127/1/16 120/1/16
f 128/1/16 1/1/16 2/1/16 127/1/16
f 65/1/17 114/1/17 107/1/17 58/1/17
f 58/1/18 107/1/18 100/1/18 51/1/18
f 51/1/19 100/1/19 93/1/19 44/1/19
f 44/1/20 93/1/20 86/1/20 37/1/20
f 36/1/21 37/1/21 86/1/21 85/1/21
f 35/1/22 36/1/22 85/1/22 84/1/22
f 34/1/23 35/1/23 84/1/23 83/1/23
f 33/1/24 34/1/24 83/1/24 82/1/24
