# Blender 4.1.1
# www.blender.org
mtllib MOTL_Weapon_Pages.mtl
o Plane.001
v 0.431434 -0.269894 0.370131
v 0.431434 0.369160 -0.209653
v -0.431434 0.369160 -0.209653
v -0.431434 -0.269894 0.370131
v 0.431434 -0.201703 0.445294
v -0.431434 -0.201703 0.445294
v -0.431434 0.437351 -0.134491
v 0.431434 0.437351 -0.134491
v 0.431434 -0.269894 0.629869
v 0.431434 0.369160 1.209653
v -0.431434 0.369160 1.209653
v -0.431434 -0.269894 0.629869
v 0.431434 -0.201703 0.554706
v -0.431434 -0.201703 0.554706
v -0.431434 0.437351 1.134491
v 0.431434 0.437351 1.134491
vn -0.0000 0.7406 -0.6719
vn -0.0000 0.6719 0.7406
vn -1.0000 -0.0000 -0.0000
vn -0.0000 -0.7406 0.6719
vn 1.0000 -0.0000 -0.0000
vn -0.0000 0.7406 0.6719
vn -0.0000 0.6719 -0.7406
vn -0.0000 -0.7406 -0.6719
vt 1.000000 1.000000
vt 0.000000 1.000000
vt 0.000000 0.000000
vt 1.000000 0.000000
s 0
f 2/1/1 3/2/1 7/2/1 8/1/1
f 6/3/2 5/4/2 8/1/2 7/2/2
f 3/2/3 4/3/3 6/3/3 7/2/3
f 4/3/4 1/4/4 5/4/4 6/3/4
f 1/4/5 2/1/5 8/1/5 5/4/5
f 10/1/6 16/1/6 15/2/6 11/2/6
f 14/3/7 15/2/7 16/1/7 13/4/7
f 11/2/3 15/2/3 14/3/3 12/3/3
f 12/3/8 14/3/8 13/4/8 9/4/8
f 9/4/5 13/4/5 16/1/5 10/1/5
