# Blender 4.1.1
# www.blender.org
mtllib MOTL_Player_Head.mtl
o Sphere
v 0.218017 0.980517 -0.300074
v 0.229236 0.860000 -0.315517
v 0.218017 0.739483 -0.300074
v 0.185456 0.630764 -0.255258
v 0.134742 0.544483 -0.185456
v 0.070838 0.489088 -0.097500
v 0.352758 0.980517 -0.114618
v 0.370912 0.860000 -0.120517
v 0.352758 0.739483 -0.114618
v 0.300074 0.630764 -0.097500
v 0.218017 0.544483 -0.070838
v 0.114618 0.489088 -0.037242
v 0.352758 0.980517 0.114618
v 0.370912 0.860000 0.120517
v 0.352758 0.739483 0.114618
v 0.300074 0.630764 0.097500
v 0.218017 0.544483 0.070838
v 0.114618 0.489088 0.037242
v 0.218017 0.980517 0.300074
v 0.229236 0.860000 0.315517
v 0.218017 0.739483 0.300074
v 0.185456 0.630764 0.255258
v 0.134742 0.544483 0.185456
v 0.070838 0.489088 0.097500
v 0.000000 0.980517 0.370912
v 0.000000 0.860000 0.390000
v 0.000000 0.739483 0.370912
v 0.000000 0.630764 0.315517
v 0.000000 0.544483 0.229236
v 0.000000 0.489088 0.120517
v -0.218017 0.980517 0.300074
v -0.229236 0.860000 0.315517
v -0.218017 0.739483 0.300074
v -0.185456 0.630764 0.255258
v -0.134742 0.544483 0.185456
v -0.070838 0.489088 0.097500
v -0.352758 0.980517 0.114618
v -0.370912 0.860000 0.120517
v -0.352758 0.739483 0.114618
v -0.300074 0.630764 0.097500
v -0.218017 0.544483 0.070838
v -0.114618 0.489088 0.037242
v 0.000000 0.470000 0.000000
v -0.352758 0.980517 -0.114618
v -0.370912 0.860000 -0.120517
v -0.352758 0.739483 -0.114618
v -0.300074 0.630764 -0.097500
v -0.218017 0.544483 -0.070838
v -0.114618 0.489088 -0.037242
v -0.218017 0.980517 -0.300074
v -0.229236 0.860000 -0.315517
v -0.218017 0.739483 -0.300074
v -0.185456 0.630764 -0.255258
v -0.134742 0.544483 -0.185456
v -0.070838 0.489088 -0.097500
v -0.000000 0.980517 -0.370912
v -0.000000 0.860000 -0.390000
v -0.000000 0.739483 -0.370912
v -0.000000 0.630764 -0.315517
v -0.000000 0.544483 -0.229236
v -0.000000 0.489088 -0.120517
v -0.000000 1.068202 -0.326234
v 0.191756 1.068202 -0.263929
v 0.310267 1.068202 -0.100812
v 0.310267 1.068202 0.100812
v 0.191756 1.068202 0.263929
v 0.000000 1.068202 0.326234
v -0.191755 1.068202 0.263929
v -0.310267 1.068202 0.100812
v -0.310267 1.068202 -0.100812
v -0.191756 1.068202 -0.263929
vn 0.3056 0.1490 -0.9404
vn 0.1459 -0.8815 -0.4491
vn 0.3056 -0.1490 -0.9404
vn 0.0508 -0.9864 -0.1562
vn 0.2781 -0.4361 -0.8559
vn 0.2781 0.4361 -0.8559
vn 0.2239 -0.6892 -0.6892
vn 0.8000 0.1490 -0.5812
vn 0.3821 -0.8815 -0.2776
vn 0.8000 -0.1490 -0.5812
vn 0.1329 -0.9864 -0.0966
vn 0.7280 -0.4361 -0.5290
vn 0.7280 0.4361 -0.5290
vn 0.5862 -0.6892 -0.4259
vn 0.7246 -0.6892 -0.0000
vn 0.9888 0.1490 -0.0000
vn 0.4722 -0.8815 -0.0000
vn 0.9888 -0.1490 -0.0000
vn 0.1643 -0.9864 -0.0000
vn 0.8999 -0.4361 -0.0000
vn 0.8999 0.4361 -0.0000
vn 0.7280 0.4361 0.5290
vn 0.5862 -0.6892 0.4259
vn 0.8000 0.1490 0.5812
vn 0.3821 -0.8815 0.2776
vn 0.8000 -0.1490 0.5812
vn 0.1329 -0.9864 0.0966
vn 0.7280 -0.4361 0.5290
vn 0.0508 -0.9864 0.1562
vn 0.2781 -0.4361 0.8559
vn 0.2781 0.4361 0.8559
vn 0.2239 -0.6892 0.6892
vn 0.3056 0.1490 0.9404
vn 0.1459 -0.8815 0.4491
vn 0.3056 -0.1490 0.9404
vn -0.3056 -0.1490 0.9404
vn -0.0508 -0.9864 0.1562
vn -0.2781 -0.4361 0.8559
vn -0.2781 0.4361 0.8559
vn -0.2239 -0.6892 0.6892
vn -0.3056 0.1490 0.9404
vn -0.1459 -0.8815 0.4491
vn -0.3821 -0.8815 0.2776
vn -0.8000 -0.1490 0.5812
vn -0.1329 -0.9864 0.0966
vn -0.7280 -0.4361 0.5290
vn -0.7280 0.4361 0.5290
vn -0.5862 -0.6892 0.4259
vn -0.8000 0.1490 0.5812
vn -0.9888 0.1490 -0.0000
vn -0.4722 -0.8815 -0.0000
vn -0.9888 -0.1490 -0.0000
vn -0.1643 -0.9864 -0.0000
vn -0.8999 -0.4361 -0.0000
vn -0.8999 0.4361 -0.0000
vn -0.7246 -0.6892 -0.0000
vn -0.5862 -0.6892 -0.4259
vn -0.8000 0.1490 -0.5812
vn -0.3821 -0.8815 -0.2776
vn -0.8000 -0.1490 -0.5812
vn -0.1329 -0.9864 -0.0966
vn -0.7280 -0.4361 -0.5290
vn -0.7280 0.4361 -0.5290
vn -0.2781 -0.4361 -0.8559
vn -0.2781 0.4361 -0.8559
vn -0.2239 -0.6892 -0.6892
vn -0.3056 0.1490 -0.9404
vn -0.1459 -0.8815 -0.4491
vn -0.3056 -0.1490 -0.9404
vn -0.0508 -0.9864 -0.1562
vn -0.0000 1.0000 -0.0000
vt 0.700000 0.500000
vt 0.700000 0.600000
vt 0.600000 0.600000
vt 0.600000 0.500000
vt 0.700000 0.100000
vt 0.700000 0.200000
vt 0.600000 0.200000
vt 0.600000 0.100000
vt 0.700000 0.400000
vt 0.600000 0.400000
vt 0.650000 0.000000
vt 0.700000 0.300000
vt 0.600000 0.300000
vt 0.700000 0.680653
vt 0.600000 0.680653
vt 0.500000 0.600000
vt 0.500000 0.500000
vt 0.500000 0.200000
vt 0.500000 0.100000
vt 0.500000 0.400000
vt 0.550000 0.000000
vt 0.500000 0.300000
vt 0.500000 0.680653
vt 0.400000 0.300000
vt 0.400000 0.200000
vt 0.400000 0.600000
vt 0.400000 0.500000
vt 0.400000 0.100000
vt 0.400000 0.400000
vt 0.450000 0.000000
vt 0.400000 0.680653
vt 0.300000 0.680653
vt 0.300000 0.600000
vt 0.300000 0.300000
vt 0.300000 0.200000
vt 0.300000 0.500000
vt 0.300000 0.100000
vt 0.300000 0.400000
vt 0.350000 0.000000
vt 0.250000 0.000000
vt 0.200000 0.100000
vt 0.200000 0.400000
vt 0.200000 0.300000
vt 0.200000 0.680653
vt 0.200000 0.600000
vt 0.200000 0.200000
vt 0.200000 0.500000
vt 0.100000 0.500000
vt 0.100000 0.400000
vt 0.150000 0.000000
vt 0.100000 0.100000
vt 0.100000 0.300000
vt 0.100000 0.680653
vt 0.100000 0.600000
vt 0.100000 0.200000
vt 0.000000 0.200000
vt 0.000000 0.100000
vt 0.000000 0.500000
vt 0.000000 0.400000
vt 0.050000 0.000000
vt 0.000000 0.300000
vt 0.000000 0.600000
vt 0.000000 0.680653
vt 1.000000 0.500000
vt 1.000000 0.600000
vt 0.900000 0.600000
vt 0.900000 0.500000
vt 1.000000 0.100000
vt 1.000000 0.200000
vt 0.900000 0.200000
vt 0.900000 0.100000
vt 1.000000 0.400000
vt 0.900000 0.400000
vt 0.950000 0.000000
vt 1.000000 0.300000
vt 0.900000 0.300000
vt 1.000000 0.680653
vt 0.900000 0.680653
vt 0.800000 0.300000
vt 0.800000 0.200000
vt 0.800000 0.600000
vt 0.800000 0.500000
vt 0.800000 0.100000
vt 0.800000 0.400000
vt 0.850000 0.000000
vt 0.800000 0.680653
vt 0.750000 0.000000
vt 0.327567 0.599797
vt 0.297939 0.559018
vt 0.250000 0.543441
vt 0.202061 0.559018
vt 0.172433 0.599797
vt 0.172433 0.650203
vt 0.202061 0.690982
vt 0.250000 0.706558
vt 0.297939 0.690982
vt 0.327567 0.650203
s 0
f 57/1/1 56/2/1 1/3/1 2/4/1
f 61/5/2 60/6/2 5/7/2 6/8/2
f 58/9/3 57/1/3 2/4/3 3/10/3
f 43/11/4 61/5/4 6/8/4
f 59/12/5 58/9/5 3/10/5 4/13/5
f 1/3/6 56/2/6 62/14/6 63/15/6
f 60/6/7 59/12/7 4/13/7 5/7/7
f 2/4/8 1/3/8 7/16/8 8/17/8
f 6/8/9 5/7/9 11/18/9 12/19/9
f 3/10/10 2/4/10 8/17/10 9/20/10
f 43/21/11 6/8/11 12/19/11
f 4/13/12 3/10/12 9/20/12 10/22/12
f 7/16/13 1/3/13 63/15/13 64/23/13
f 5/7/14 4/13/14 10/22/14 11/18/14
f 11/18/15 10/22/15 16/24/15 17/25/15
f 8/17/16 7/16/16 13/26/16 14/27/16
f 12/19/17 11/18/17 17/25/17 18/28/17
f 9/20/18 8/17/18 14/27/18 15/29/18
f 43/30/19 12/19/19 18/28/19
f 10/22/20 9/20/20 15/29/20 16/24/20
f 65/31/21 13/26/21 7/16/21 64/23/21
f 66/32/22 19/33/22 13/26/22 65/31/22
f 17/25/23 16/24/23 22/34/23 23/35/23
f 14/27/24 13/26/24 19/33/24 20/36/24
f 18/28/25 17/25/25 23/35/25 24/37/25
f 15/29/26 14/27/26 20/36/26 21/38/26
f 43/39/27 18/28/27 24/37/27
f 16/24/28 15/29/28 21/38/28 22/34/28
f 43/40/29 24/37/29 30/41/29
f 22/34/30 21/38/30 27/42/30 28/43/30
f 67/44/31 25/45/31 19/33/31 66/32/31
f 23/35/32 22/34/32 28/43/32 29/46/32
f 20/36/33 19/33/33 25/45/33 26/47/33
f 24/37/34 23/35/34 29/46/34 30/41/34
f 21/38/35 20/36/35 26/47/35 27/42/35
f 27/42/36 26/47/36 32/48/36 33/49/36
f 43/50/37 30/41/37 36/51/37
f 28/43/38 27/42/38 33/49/38 34/52/38
f 68/53/39 31/54/39 25/45/39 67/44/39
f 29/46/40 28/43/40 34/52/40 35/55/40
f 26/47/41 25/45/41 31/54/41 32/48/41
f 30/41/42 29/46/42 35/55/42 36/51/42
f 36/51/43 35/55/43 41/56/43 42/57/43
f 33/49/44 32/48/44 38/58/44 39/59/44
f 43/60/45 36/51/45 42/57/45
f 34/52/46 33/49/46 39/59/46 40/61/46
f 37/62/47 31/54/47 68/53/47 69/63/47
f 35/55/48 34/52/48 40/61/48 41/56/48
f 32/48/49 31/54/49 37/62/49 38/58/49
f 38/64/50 37/65/50 44/66/50 45/67/50
f 42/68/51 41/69/51 48/70/51 49/71/51
f 39/72/52 38/64/52 45/67/52 46/73/52
f 43/74/53 42/68/53 49/71/53
f 40/75/54 39/72/54 46/73/54 47/76/54
f 44/66/55 37/65/55 69/77/55 70/78/55
f 41/69/56 40/75/56 47/76/56 48/70/56
f 48/70/57 47/76/57 53/79/57 54/80/57
f 45/67/58 44/66/58 50/81/58 51/82/58
f 49/71/59 48/70/59 54/80/59 55/83/59
f 46/73/60 45/67/60 51/82/60 52/84/60
f 43/85/61 49/71/61 55/83/61
f 47/76/62 46/73/62 52/84/62 53/79/62
f 50/81/63 44/66/63 70/78/63 71/86/63
f 53/79/64 52/84/64 58/9/64 59/12/64
f 56/2/65 50/81/65 71/86/65 62/14/65
f 54/80/66 53/79/66 59/12/66 60/6/66
f 51/82/67 50/81/67 56/2/67 57/1/67
f 55/83/68 54/80/68 60/6/68 61/5/68
f 52/84/69 51/82/69 57/1/69 58/9/69
f 43/87/70 55/83/70 61/5/70
f 64/88/71 63/89/71 62/90/71 71/91/71 70/92/71 69/93/71 68/94/71 67/95/71 66/96/71 65/97/71
